ply
format ascii 1.0
comment Created by Blender 2.76 (sub 0) - www.blender.org, source file: ''
element vertex 8
property float x
property float y
property float z
element face 6
property list uchar uint vertex_indices
end_header
7.000000 1.000000 -1.000000
7.000000 -1.000000 -1.000000
0.000000 -1.000000 -1.000000
0.000000 1.000000 -1.000000
7.000000 0.999999 1.000000
0.000000 1.000000 1.000000
0.000000 -1.000000 1.000000
7.000000 -1.000001 1.000000
4 0 1 2 3
4 4 5 6 7
4 0 4 7 1
4 1 7 6 2
4 2 6 5 3
4 4 0 3 5